<svg xmlns="http://www.w3.org/2000/svg" width="16" height="16" viewBox="0 0 16 16" fill="none">
  <path fill="#F2F2F2" d="M5.2 1.5h5.6A3.7 3.7 0 0 1 14.5 5.2v5.6a3.7 3.7 0 0 1-3.7 3.7H5.2A3.7 3.7 0 0 1 1.5 10.8V5.2A3.7 3.7 0 0 1 5.2 1.5Zm0 1.5A2.2 2.2 0 0 0 3 5.2v5.6A2.2 2.2 0 0 0 5.2 13h5.6a2.2 2.2 0 0 0 2.2-2.2V5.2A2.2 2.2 0 0 0 10.8 3H5.2Z"/>
  <path fill="#F2F2F2" d="M8 4.6A3.4 3.4 0 1 1 8 11.4 3.4 3.4 0 0 1 8 4.6Zm0 1.5a1.9 1.9 0 1 0 0 3.8 1.9 1.9 0 0 0 0-3.8Z"/>
  <path fill="#F2F2F2" d="M11.6 4.2a.9.9 0 1 1 0 1.8.9.9 0 0 1 0-1.8Z"/>
</svg>
